<svg id="Capa_1" enable-background="new 0 0 512.002 512.002" height="512" viewBox="0 0 512.002 512.002" width="512" xmlns="http://www.w3.org/2000/svg"><g><g><path clip-rule="evenodd" d="m314.254 257.979c-18.288 9.093-38.271 13.625-58.253 13.625s-39.965-4.532-58.253-13.625v41.019l58.253 41.765 58.253-41.765z" fill="#ffd0c7" fill-rule="evenodd"/></g><g><path clip-rule="evenodd" d="m348.591 48.323c-23.255-23.235-53.056-35.913-83.46-38.007h-9.13-9.101c-30.404 2.094-60.234 14.773-83.46 38.007-25.581 25.529-38.357 59.004-38.357 92.479s12.776 66.95 38.357 92.508c10.307 10.298 21.906 18.53 34.309 24.669 18.288 9.093 38.271 13.625 58.253 13.625s39.965-4.532 58.253-13.625c12.403-6.139 24.002-14.371 34.337-24.669 25.552-25.558 38.328-59.033 38.328-92.508-.001-33.475-12.777-66.95-38.329-92.479z" fill="#ffda8f" fill-rule="evenodd"/></g><g><path clip-rule="evenodd" d="m256.001 340.763-58.253-41.765c-17.571 2.553-33.476 6.425-47.889 11.33l51.793 67.753 12.03-8.261z" fill="#66e0f7" fill-rule="evenodd"/></g><g><path clip-rule="evenodd" d="m362.171 310.329c-14.413-4.905-30.347-8.778-47.917-11.33l-58.253 41.765 42.319 29.058 12.03 8.261z" fill="#66e0f7" fill-rule="evenodd"/></g><g><path clip-rule="evenodd" d="m298.32 369.821-42.319-29.058-42.319 29.058 20.671 47.903h43.324z" fill="#ff9c9b" fill-rule="evenodd"/></g><g><path clip-rule="evenodd" d="m277.677 417.724h-43.324l-16.967 84.276h77.23z" fill="#ff9c9b" fill-rule="evenodd"/></g><g><path clip-rule="evenodd" d="m201.653 378.082-51.793-67.753c-81.049 27.681-114.554 89.295-127.33 146.837-7.522 33.876 1.033 44.834 34.165 44.834h160.691l16.968-84.276-20.671-47.903z" fill="#ccf5fc" fill-rule="evenodd"/></g><g><path clip-rule="evenodd" d="m489.472 457.166c-12.747-57.542-46.281-119.156-127.301-146.837l-51.822 67.753-12.03-8.261-20.643 47.903 16.94 84.276h160.691c33.132 0 41.687-10.958 34.165-44.834z" fill="#ccf5fc" fill-rule="evenodd"/></g><g><path d="m499.237 455.003c-12.395-55.947-45.959-123.842-133.339-153.945-.331-.133-.665-.249-1.004-.345-12.435-4.223-25.948-7.686-40.64-10.243v-26.412c11.377-6.307 21.946-14.232 31.406-23.673 26.626-26.603 41.287-61.975 41.281-99.599-.005-37.61-14.667-72.961-41.281-99.538-26.624-26.6-62.016-41.248-99.659-41.248-37.654 0-73.039 14.65-99.629 41.246-26.579 26.542-41.234 61.831-41.281 99.382-.001.059-.009.115-.009.174 0 .062.008.121.009.183.047 37.55 14.7 72.845 41.279 99.4 9.448 9.439 20.007 17.364 31.377 23.671v26.415c-14.183 2.472-27.599 5.871-40.249 10.145-.599.145-1.186.35-1.759.609-25.148 8.712-47.186 20.972-65.815 36.721-4.218 3.565-4.746 9.875-1.181 14.093 1.978 2.34 4.801 3.544 7.642 3.544 2.28 0 4.573-.775 6.451-2.363 15.27-12.908 33.179-23.253 53.543-30.974l47.327 61.911c1.962 2.566 4.936 3.928 7.952 3.928 1.955 0 3.928-.572 5.655-1.758l2.004-1.376 14.614 33.866-14.733 73.183h-77.245v-35.522c0-5.522-4.478-10-10-10s-10 4.478-10 10v35.522h-55.258c-13.1 0-21.27-1.904-24.282-5.659-3.18-3.962-3.22-13.049-.119-27.015 2.876-13 6.736-25.498 11.472-37.146 2.08-5.116-.381-10.95-5.497-13.03-5.115-2.082-10.952.381-13.031 5.497-5.158 12.688-9.355 26.266-12.471 40.352-3.143 14.155-5.524 31.933 4.045 43.858 9.346 11.649 26.224 13.143 39.883 13.143h160.662c.013 0 .026.002.039.002.015 0 .03-.002.045-.002h77.119c.015 0 .03.002.045.002.013 0 .026-.002.039-.002h160.662c13.659 0 30.537-1.494 39.884-13.144 9.569-11.925 7.188-29.703 4.047-43.853zm-153.725-139.355-37.334 48.812-4.112-2.824c-.015-.01-.03-.021-.044-.031l-30.611-21.019 43.326-31.064c10.017 1.597 19.627 3.621 28.775 6.126zm-210.008-164.846h14.93c5.523 0 10-4.478 10-10s-4.478-10-10-10h-14.929c2.323-28.497 14.541-54.972 35.007-75.409 20.446-20.452 46.952-32.663 75.488-34.981v14.945c0 5.522 4.478 10 10 10 5.523 0 10-4.478 10-10v-14.944c28.533 2.319 55.05 14.53 75.523 34.986 20.461 20.432 32.679 46.906 35.002 75.403h-14.958c-5.523 0-10 4.478-10 10s4.478 10 10 10h14.959c-2.321 28.501-14.539 54.988-35.001 75.431-20.48 20.44-46.998 32.642-75.525 34.96v-14.917c0-5.522-4.478-10-10-10-5.523 0-10 4.478-10 10v14.917c-28.531-2.317-55.038-14.518-75.493-34.956-20.464-20.447-32.682-46.933-35.003-75.435zm120.497 130.802c16.717 0 32.99-2.896 48.252-8.437v20.695l-48.252 34.596-48.252-34.596v-20.694c15.258 5.541 31.53 8.436 48.252 8.436zm-89.454 34.089c9.154-2.524 18.735-4.578 28.716-6.172l43.329 31.065-30.598 21.01c-.025.017-.05.034-.074.051l-4.093 2.811zm89.454 37.201 29.882 20.518-14.786 34.312h-30.167l-14.807-34.314zm-13.459 74.831h26.945l12.919 64.275h-52.805zm237.047 58.616c-3.013 3.755-11.182 5.659-24.282 5.659h-55.257v-35.522c0-5.522-4.478-10-10-10-5.523 0-10 4.478-10 10v35.522h-77.242l-14.71-73.185 14.592-33.863 2 1.373c1.727 1.186 3.699 1.758 5.655 1.758 3.015 0 5.989-1.36 7.951-3.926l47.387-61.956c60.605 22.847 98.885 68.773 114.029 137.132 3.097 13.959 3.057 23.046-.123 27.008z"/><path d="m250.96 169.834c.002.001.005.002.008.004 1.584.922 3.314 1.361 5.024 1.361 3.44 0 6.788-1.776 8.647-4.961l35.342-60.554c2.784-4.771 1.174-10.894-3.596-13.678-4.774-2.784-10.895-1.175-13.678 3.596l-30.307 51.925-26.823-15.624c-4.772-2.782-10.894-1.165-13.674 3.607-2.78 4.771-1.165 10.895 3.608 13.674l35.44 20.644c.003.002.005.004.009.006z"/><path d="m52.263 390.036c1.444.735 2.985 1.083 4.504 1.083 3.657 0 7.189-2.015 8.957-5.493 2.503-4.923.541-10.942-4.382-13.446-4.923-2.503-10.944-.542-13.447 4.382l-.029.058c-2.503 4.922-.526 10.913 4.397 13.416z"/></g></g></svg>